<?xml version="1.0" encoding="utf-8"?>
<!-- Generator: Adobe Illustrator 23.0.6, SVG Export Plug-In . SVG Version: 6.00 Build 0)  -->
<svg version="1.1" id="Layer_1" xmlns="http://www.w3.org/2000/svg" xmlns:xlink="http://www.w3.org/1999/xlink" x="0px" y="0px"
	 viewBox="0 0 136.5 142.2" style="enable-background:new 0 0 136.5 142.2;" xml:space="preserve">
<style type="text/css">
	.st0{fill:#273440;}
</style>
<title>Artboard 5</title>
<circle class="st0" cx="40.7" cy="27.5" r="12.1"/>
<path class="st0" d="M73.8,139.2c9.3-4.8,12.7-15.5,7.7-25c-8.5-16.3-34-10.5-43.3-28.3c-2.6-5.4-2.9-11.6-0.6-17.2L0.1,68.4
	c-1.1,20.2,4.5,39.5,19.3,54.2c12.1,12,28.3,19,45.3,19.6C67.9,141.8,71,140.7,73.8,139.2z"/>
<path class="st0" d="M114.3,21.8C106.7,14.3,94,4.6,78.9,0l-5.2,5.2c15.6,2.8,28.9,13.2,37,21.2c11.5,11.5,18.5,26.8,19.5,43
	L42,68.8c-2.1,4.5-2.9,10.3-0.3,15.3c7.9,15.2,34.2,10.7,43.3,28.3c5.6,10.3,2.1,23.2-8,29.2c15.1-2.1,29.1-9.1,39.9-19.9
	C142.8,95.6,144.1,51.4,114.3,21.8z"/>
</svg>
