<svg xmlns="http://www.w3.org/2000/svg" viewBox="0 0 327.2 536.8">
  <defs>
    <style>
      .cls-1 {
        fill: none;
        stroke: #000;
        stroke-linecap: round;
        stroke-linejoin: round;
        stroke-width: 0.75px;
      }
    </style>
  </defs>
  <g id="Layer_2" data-name="Layer 2">
    <path class="cls-1" d="M260.1,407.2c2.7.5,3.2,3,3.2,5.2,0,3.7-2.6,6.6-5.8,6.6s-6.6-2.3-6.6-6" transform="translate(-108.3 -131.2)"/>
    <path class="cls-1" d="M260.1,407.2c1.3.5,2.4,3,2.4,5.2,0,3.7-3.5,5.9-6.7,5.9s-5.2-2.9-5.2-6.6" transform="translate(-108.3 -131.2)"/>
    <path class="cls-1" d="M251.7,412.4" transform="translate(-108.3 -131.2)"/>
    <path class="cls-1" d="M294.6,364.3c1.1-3.1,4.2-8.5,5.5-13.6s2.6-21,2.8-28.8c.2-10,.7-45-.5-78.4s-6.5-82-10.1-95.7-4.1-14.4-6.2-16-2.8,0-4.1.7-39.3,12-40.7,12.3-2.6,26.4-2.3,38.4-2.3,75.6-2.3,75.6-1.7,65.7-1.7,89.7,9.1,41.7,10.9,46.3,5.3,21,6.1,21.5" transform="translate(-108.3 -131.2)"/>
    <path class="cls-1" d="M287.7,378.7" transform="translate(-108.3 -131.2)"/>
    <path class="cls-1" d="M260.8,407c3.9-8.5,11.8-23.5,13.1-28.5s3.7-30.5,3.6-57,1.8-80.7,2.8-101.3,2-71,2.7-74.7.6-14.1,3.9-13" transform="translate(-108.3 -131.2)"/>
    <path class="cls-1" d="M260.1,407.2c3.9-8.5,11.1-23.7,12.4-28.7s4.6-31,3.6-57,1.8-80.7,2.8-101.3,2-71,2.7-74.7,1.1-13.7,4.5-13.7" transform="translate(-108.3 -131.2)"/>
    <path class="cls-1" d="M306.5,382.1c-1.6-1.9-13.9-19.8-13.9-19.8l-3.1-3.8-2.4,2.5" transform="translate(-108.3 -131.2)"/>
    <path class="cls-1" d="M268.5,391c17.6,16,70.7,82.8,88.8,108.7s53.8,55.3,58,58.1,10.5,5.2,13.2,4,3.7-5,4.2-6" transform="translate(-108.3 -131.2)"/>
    <path class="cls-1" d="M268.8,390.5c17.5,16,70.4,81.7,88.5,107.6s53.8,55.3,58,58.1,10.5,5.2,13.2,4,2.8-3,3.3-4" transform="translate(-108.3 -131.2)"/>
    <path class="cls-1" d="M313.3,441.1s42.7,49.2,44.9,52.2,47.5,49.4,52.1,52.7,16.4,11.9,19.2,11.2c4.6-1.2,5-3.4,4.5-13s0-7.9-.4-8.4-17.9,13.3-17.9,13.3" transform="translate(-108.3 -131.2)"/>
    <path class="cls-1" d="M312.2,439.8s44.8,50.5,46.9,53.5,47.5,49.4,52.2,52.7,16.4,11.9,19.2,11.2c4.5-1.2,5-3.4,4.5-13s-.4-9.7-.8-9.6c-3.7,1.1-18.5,14.5-18.5,14.5" transform="translate(-108.3 -131.2)"/>
    <line class="cls-1" x1="325.3" y1="404.6" x2="325.9" y2="403.7"/>
    <path class="cls-1" d="M428.5,561.8c-55.2,34.7-77.7,55.3-97.7,72s-37.3,29.1-44.2,32.3a18.7,18.7,0,0,1-14.1.4c-6-2.2-31.8-30.8-31.8-30.8" transform="translate(-108.3 -131.2)"/>
    <path class="cls-1" d="M108.7,526.8c55.8,36.1,121.7,100.5,132,108.9" transform="translate(-108.3 -131.2)"/>
    <path class="cls-1" d="M244.3,391c-9.5,9-64,58.3-70.3,64.5s-43,42.2-47.2,46.3c-2.2,2.1-22.8,27.5-17,24.7s60.2-55.5,64-59.2,53.5-51.3,58.7-57,13.4-15.5,13.4-15.5" transform="translate(-108.3 -131.2)"/>
    <path class="cls-1" d="M274.7,374.6l11.4-13.9,5.1,5.4s29.3,33.9,29.9,34.2,36.1,36.5,48.8,48.4,35.6,41.1,46.9,63.1,12.6,25.8,12.6,25.8" transform="translate(-108.3 -131.2)"/>
    <path class="cls-1" d="M429.4,537.6s-1.4-5.1-12.6-27.1S377,454,367.2,445.1c-13-11.6-45.6-45.6-46.1-46.1l-35-39.2-11.2,13.4" transform="translate(-108.3 -131.2)"/>
    <line class="cls-1" x1="177.8" y1="228.6" x2="177.8" y2="229.2"/>
    <path class="cls-1" d="M286.9,360.4l2.7-2.7L293,362s13.5,20.1,14.9,22.3" transform="translate(-108.3 -131.2)"/>
    <line class="cls-1" x1="181.2" y1="227.3" x2="181.3" y2="226.5"/>
    <path class="cls-1" d="M278.1,369.3a61,61,0,0,0-2-8.6" transform="translate(-108.3 -131.2)"/>
    <path class="cls-1" d="M286.1,132.5c1.1.3,3.1,3.8,5.8,16.9s3.6,21.5,5.5,39.7,4.7,50.5,4.8,70.8.4,55.2-.2,66.6-.4,13.4-1.8,21.4-6,15.8-6,15.8" transform="translate(-108.3 -131.2)"/>
  </g>
  <g id="Layer_3" data-name="Layer 3">
    <path class="cls-1" d="M296.4,378l-7.8.7c-1.1.1-1.8-1-3.4-1a5.4,5.4,0,0,0-3.7,1.6c-.3.4-6.7-.1-7.7-.2a1.4,1.4,0,0,1-.2.6v15.2c15.7-.1,15.7-.3,24-1.7Z" transform="translate(-108.3 -131.2)"/>
    <path class="cls-1" d="M273.9,395.5c9-.3,16.9-1,23.9-1.8-.1-.5-.5-3.4-.7-3.8" transform="translate(-108.3 -131.2)"/>
    <path class="cls-1" d="M273.6,379.7c-.3,4.7-.3,10.1-.6,14.9" transform="translate(-108.3 -131.2)"/>
  </g>
</svg>
